<svg xmlns="http://www.w3.org/2000/svg" width="512" height="300" style="overflow: visible;" viewBox="0 110 512 300" data-svgdocument="" id="_y95_9c4CzC0Y_uA8PsJ8m" class="fl-svgdocument" x="0" y="0" xmlns:xlink="http://www.w3.org/1999/xlink"><defs id="_cvAOlCGN8bypIhu2031Z7" transform="matrix(0.994310517608332, 0, 0, 0.994310517608332, -47.84861197860287, 128.22547384002502)" data-uid="o_ekhl52ng0_6"></defs><g id="_EZXzziy6TFja7ZXwHU04r" transform="matrix(0.8919906167467122, 0, 0, 0.8919906167467122, 24.554123219465545, 36.825038502532024)" data-uid="o_ekhl52ng0_7"><path id="_5YSg-HcRuD3CnmUNMEUpZ" d="M67,12h-.1A28.4,28.4,0,0,0,49,18.4c-5.7-5-11.1-7.7-16.1-7.7a25.2,25.2,0,0,0-18.2,7.7,27.2,27.2,0,0,0-6,27.4s0,.2.1.2H21.5l6-9.4a3.1,3.1,0,0,1,2.7-1.5,3.2,3.2,0,0,1,2.5,1.5l8.5,16.3,9.1-15a3,3,0,0,1,2.2-1.4,3.3,3.3,0,0,1,2.5.8l8.3,8a3,3,0,0,1,.1,4.2,3,3,0,0,1-4.3.1l-5.6-5.4-10,16.3A2.9,2.9,0,0,1,41,62h-.1a3.2,3.2,0,0,1-2.6-1.7L29.7,43.9l-4.1,6.5A3.3,3.3,0,0,1,23.1,52H11.6c.9,1,2,2.5,3.2,3.7L46.9,86.6a2.8,2.8,0,0,0,2.1.8,3,3,0,0,0,2.1-.9L83.3,55.4a26.3,26.3,0,0,0,0-36.8A22.4,22.4,0,0,0,67,12Z" stroke="none" fill="#1e2629" transform="matrix(1.9062583446502686, 0, 0, 1.9445379972457886, 165.71127319335938, 94.94911193847656)" stroke-width="1" data-uid="o_ekhl52ng0_8"></path><path id="_urYJEuoRQUy88LUYTLU2v" d="M67,12h-.1A28.4,28.4,0,0,0,49,18.4c-5.7-5-11.1-7.7-16.1-7.7a25.2,25.2,0,0,0-18.2,7.7,27.2,27.2,0,0,0-6,27.4s0,.2.1.2H21.5l6-9.4a3.1,3.1,0,0,1,2.7-1.5,3.2,3.2,0,0,1,2.5,1.5l8.5,16.3,9.1-15a3,3,0,0,1,2.2-1.4,3.3,3.3,0,0,1,2.5.8l8.3,8a3,3,0,0,1,.1,4.2,3,3,0,0,1-4.3.1l-5.6-5.4-10,16.3A2.9,2.9,0,0,1,41,62h-.1a3.2,3.2,0,0,1-2.6-1.7L29.7,43.9l-4.1,6.5A3.3,3.3,0,0,1,23.1,52H11.6c.9,1,2,2.5,3.2,3.7L46.9,86.6a2.8,2.8,0,0,0,2.1.8,3,3,0,0,0,2.1-.9L83.3,55.4a26.3,26.3,0,0,0,0-36.8A22.4,22.4,0,0,0,67,12Z" stroke="none" fill="#1e2629" transform="matrix(-1.9062583446502686, 0, 0, 1.9445379972457886, 351.6259765625, 94.94911193847656)" stroke-width="1" data-uid="o_ekhl52ng0_9"></path><path id="_8GZC4qN9IuDU0WA0XQcdt" stroke="none" fill="#ffffff" transform="matrix(0.6823295950889587, 0, 0, 0.42533907294273376, 193.80355834960938, 140.89862060546875)" stroke-width="1" data-type="circle" data-cx="88.385" data-cy="88.385" data-r="88.385" d="M88.385,88.385m-88.385,0a88.385,88.385 0 1, 0 176.77,0a88.385,88.385 0 1, 0 -176.77,0" data-uid="o_ekhl52ng0_10"></path><path id="_SHn8JFIE_BV-AQP03Kjmf" d="M67,12h-.1A28.4,28.4,0,0,0,49,18.4c-5.7-5-11.1-7.7-16.1-7.7a25.2,25.2,0,0,0-18.2,7.7,27.2,27.2,0,0,0-6,27.4s0,.2.1.2H21.5l6-9.4a3.1,3.1,0,0,1,2.7-1.5,3.2,3.2,0,0,1,2.5,1.5l8.5,16.3,9.1-15a3,3,0,0,1,2.2-1.4,3.3,3.3,0,0,1,2.5.8l8.3,8a3,3,0,0,1,.1,4.2,3,3,0,0,1-4.3.1l-5.6-5.4-10,16.3A2.9,2.9,0,0,1,41,62h-.1a3.2,3.2,0,0,1-2.6-1.7L29.7,43.9l-4.1,6.5A3.3,3.3,0,0,1,23.1,52H11.6c.9,1,2,2.5,3.2,3.7L46.9,86.6a2.8,2.8,0,0,0,2.1.8,3,3,0,0,0,2.1-.9L83.3,55.4a26.3,26.3,0,0,0,0-36.8A22.4,22.4,0,0,0,67,12Z" stroke="none" fill="#00a8ff" transform="matrix(1.617689847946167, 0, 0, 1.617689847946167, 179.78114318847656, 109.8494873046875)" stroke-width="1" data-uid="o_ekhl52ng0_11"></path><path id="_JtBZvesl6RrVNBN9_KnNO" d="M176.742,88.385c0,1.841-1.492,3.334-3.334,3.334H3.334C1.493,91.719,0,90.225,0,88.385l0,0
	c0-1.841,1.493-3.333,3.333-3.333h170.074C175.25,85.051,176.742,86.544,176.742,88.385L176.742,88.385z" stroke="none" fill="#1e2629" transform="matrix(2.1609134674072266, 0, 0, 1.8902153968811035, 68.5091552734375, 202.33184814453125)" stroke-width="1" data-uid="o_ekhl52ng0_12"></path></g><path text="HEALTHCHECK" text-anchor="start" font-size="100" letter-spacing="0" side="left" offset="0" dx="0" dy="0" space="preserve" href="" font-family="Fredoka One" font-scale="contain" transform="matrix(0.5791545051617532, 0, 0, 0.5791545051617532, 40.03328856006083, 342.08807868424276)" x="0" y="0" fill="#1e2629" data-fl-textpath="" id="_VgVryR9aMxP6lEpSAYPBe" data-uid="o_ekhl52ng0_13" d="M 49.3-70.6Q 50.1-72.1  52-72.7Q 53.9-73.3  56.8-73.3Q 59.7-73.3  61.4-72.8Q 63.1-72.3  64-71.6Q 64.9-70.9  65.4-69.6L 65.4-69.6Q 65.9-67.9  65.9-64.4L 65.9-64.4L 65.9-8.9Q 65.9-6.6  65.75-5.45Q 65.6-4.3  64.8-2.8L 64.8-2.8Q 63.4-0.1  57-0.1L 57-0.1Q 50-0.1  48.8-3.8L 48.8-3.8Q 48.2-5.5  48.2-9L 48.2-9L 48.2-29.3L 21.7-29.3L 21.7-8.9Q 21.7-6.6  21.55-5.45Q 21.4-4.3  20.6-2.8L 20.6-2.8Q 19.2-0.1  12.8-0.1L 12.8-0.1Q 5.8-0.1  4.6-3.8L 4.6-3.8Q 4-5.5  4-9L 4-9L 4-64.5Q 4-66.8  4.15-67.95Q 4.3-69.1  5.1-70.6L 5.1-70.6Q 6.5-73.3  12.9-73.3L 12.9-73.3Q 19.9-73.3  21.2-69.6L 21.2-69.6Q 21.7-67.9  21.7-64.4L 21.7-64.4L 21.7-44L 48.2-44L 48.2-64.5Q 48.2-66.8  48.35-67.95Q 48.5-69.1  49.3-70.6ZM 91.60000000000001-27.8L 91.60000000000001-17.7L 122.4-17.7Q 124.7-17.7  125.85000000000001-17.55Q 127-17.4  128.5-16.6L 128.5-16.6Q 131.2-15.2  131.2-8.8L 131.2-8.8Q 131.2-1.8  127.5-0.6L 127.5-0.6Q 125.80000000000001 0  122.30000000000001 0L 122.30000000000001 0L 82.7 0Q 75.7 0  74.5-3.8L 74.5-3.8Q 73.9-5.4  73.9-8.9L 73.9-8.9L 73.9-64.5Q 73.9-69.6  75.80000000000001-71.45Q 77.7-73.3  83-73.3L 83-73.3L 122.4-73.3Q 124.7-73.3  125.85000000000001-73.15Q 127-73  128.5-72.2L 128.5-72.2Q 131.2-70.8  131.2-64.4L 131.2-64.4Q 131.2-57.4  127.5-56.2L 127.5-56.2Q 125.80000000000001-55.6  122.30000000000001-55.6L 122.30000000000001-55.6L 91.60000000000001-55.6L 91.60000000000001-45.5L 111.4-45.5Q 113.7-45.5  114.85000000000001-45.35Q 116-45.2  117.5-44.4L 117.5-44.4Q 120.2-43  120.2-36.6L 120.2-36.6Q 120.2-29.6  116.4-28.4L 116.4-28.4Q 114.7-27.8  111.2-27.8L 111.2-27.8L 91.60000000000001-27.8ZM 180-68.1L 180-68.1L 207-12.3Q 208.70000000000002-8.9  208.70000000000002-7.2L 208.70000000000002-7.2Q 208.70000000000002-3.6  202.90000000000003-0.7L 202.90000000000003-0.7Q 199.5 1  197.55 1Q 195.60000000000002 1  194.35000000000002 0.1Q 193.10000000000002-0.8  192.55-1.8Q 192-2.8  191-4.8L 191-4.8L 185.8-15.6L 158.10000000000002-15.6L 152.9-4.8Q 151.9-2.8  151.35000000000002-1.9Q 150.8-1  149.55-0.05Q 148.3 0.9  146.35000000000002 0.9Q 144.4 0.9  141.00000000000003-0.8L 141.00000000000003-0.8Q 135.20000000000002-3.6  135.20000000000002-7.2L 135.20000000000002-7.2Q 135.20000000000002-8.9  136.9-12.3L 136.9-12.3L 163.9-68.2Q 165.00000000000003-70.5  167.25-71.9Q 169.5-73.3  172-73.3L 172-73.3Q 177.40000000000003-73.3  180-68.1ZM 178.60000000000002-30.4L 171.90000000000003-44.1L 165.3-30.4L 178.60000000000002-30.4ZM 231.9-64.4L 231.9-14.8L 259.1-14.8Q 262.40000000000003-14.8  263.90000000000003-14.05Q 265.40000000000003-13.3  265.90000000000003-11.7Q 266.40000000000003-10.1  266.40000000000003-7.45Q 266.40000000000003-4.8  265.90000000000003-3.2Q 265.40000000000003-1.6  264.20000000000005-1L 264.20000000000005-1Q 262.3 0  259 0L 259 0L 223.00000000000003 0Q 216.00000000000003 0  214.8-3.8L 214.8-3.8Q 214.20000000000002-5.4  214.20000000000002-8.9L 214.20000000000002-8.9L 214.20000000000002-64.5Q 214.20000000000002-66.8  214.35000000000002-67.95Q 214.50000000000003-69.1  215.3-70.6L 215.3-70.6Q 216.70000000000002-73.3  223.10000000000002-73.3L 223.10000000000002-73.3Q 230.10000000000002-73.3  231.4-69.6L 231.4-69.6Q 231.9-67.9  231.9-64.4L 231.9-64.4ZM 277.70000000000005-73.4L 277.70000000000005-73.4L 333.30000000000007-73.4Q 336.5-73.4  338-72.65Q 339.5-71.9  340-70.3Q 340.5-68.7  340.5-66.1Q 340.5-63.5  340-61.95Q 339.5-60.4  338.30000000000007-59.8L 338.30000000000007-59.8Q 336.5-58.9  333.20000000000005-58.9L 333.20000000000005-58.9L 314.1-58.9L 314.1-8.6Q 314.1-6.3  313.95000000000005-5.2Q 313.8-4.1  313.05-2.65Q 312.3-1.2  310.40000000000003-0.6Q 308.50000000000006 0  305.40000000000003 0Q 302.3 0  300.45000000000005-0.6Q 298.6-1.2  297.85-2.65Q 297.1-4.1  296.95000000000005-5.25Q 296.8-6.4  296.8-8.7L 296.8-8.7L 296.8-58.9L 277.6-58.9Q 274.40000000000003-58.9  272.90000000000003-59.65Q 271.40000000000003-60.4  270.90000000000003-62Q 270.40000000000003-63.6  270.40000000000003-66.2Q 270.40000000000003-68.8  270.90000000000003-70.35Q 271.40000000000003-71.9  272.6-72.5L 272.6-72.5Q 274.40000000000003-73.4  277.70000000000005-73.4ZM 391.30000000000007-70.6Q 392.1000000000001-72.1  394.00000000000006-72.7Q 395.90000000000003-73.3  398.80000000000007-73.3Q 401.70000000000005-73.3  403.40000000000003-72.8Q 405.1000000000001-72.3  406.00000000000006-71.6Q 406.9000000000001-70.9  407.4000000000001-69.6L 407.4000000000001-69.6Q 407.9000000000001-67.9  407.9000000000001-64.4L 407.9000000000001-64.4L 407.9000000000001-8.9Q 407.9000000000001-6.6  407.75000000000006-5.45Q 407.6-4.3  406.80000000000007-2.8L 406.80000000000007-2.8Q 405.40000000000003-0.1  399.00000000000006-0.1L 399.00000000000006-0.1Q 392.00000000000006-0.1  390.80000000000007-3.8L 390.80000000000007-3.8Q 390.20000000000005-5.5  390.20000000000005-9L 390.20000000000005-9L 390.20000000000005-29.3L 363.70000000000005-29.3L 363.70000000000005-8.9Q 363.70000000000005-6.6  363.55000000000007-5.45Q 363.40000000000003-4.3  362.6000000000001-2.8L 362.6000000000001-2.8Q 361.20000000000005-0.1  354.80000000000007-0.1L 354.80000000000007-0.1Q 347.80000000000007-0.1  346.6000000000001-3.8L 346.6000000000001-3.8Q 346.00000000000006-5.5  346.00000000000006-9L 346.00000000000006-9L 346.00000000000006-64.5Q 346.00000000000006-66.8  346.15000000000003-67.95Q 346.30000000000007-69.1  347.1000000000001-70.6L 347.1000000000001-70.6Q 348.50000000000006-73.3  354.90000000000003-73.3L 354.90000000000003-73.3Q 361.90000000000003-73.3  363.20000000000005-69.6L 363.20000000000005-69.6Q 363.70000000000005-67.9  363.70000000000005-64.4L 363.70000000000005-64.4L 363.70000000000005-44L 390.20000000000005-44L 390.20000000000005-64.5Q 390.20000000000005-66.8  390.3500000000001-67.95Q 390.50000000000006-69.1  391.30000000000007-70.6ZM 461.7000000000001-19.2L 461.7000000000001-19.2L 463.5000000000001-20.5Q 466.9000000000001-22.5  468.30000000000007-22.5L 468.30000000000007-22.5Q 471.4000000000001-22.5  475.0000000000001-16.9L 475.0000000000001-16.9Q 477.2000000000001-13.4  477.2000000000001-11.3Q 477.2000000000001-9.2  475.8500000000001-7.8Q 474.5000000000001-6.4  472.7000000000001-5.3Q 470.9000000000001-4.2  469.2500000000001-3.2Q 467.6000000000001-2.2  462.5000000000001-0.6Q 457.4000000000001 1  452.6500000000001 1Q 447.9000000000001 1  443.05000000000007-0.25Q 438.2000000000001-1.5  433.05000000000007-4.45Q 427.9000000000001-7.4  423.80000000000007-11.65Q 419.7000000000001-15.9  417.05000000000007-22.55Q 414.4000000000001-29.2  414.4000000000001-37Q 414.4000000000001-44.8  417.0000000000001-51.15Q 419.6000000000001-57.5  423.6500000000001-61.65Q 427.7000000000001-65.8  432.9000000000001-68.6L 432.9000000000001-68.6Q 442.7000000000001-74  452.6000000000001-74L 452.6000000000001-74Q 457.30000000000007-74  462.1500000000001-72.55Q 467.0000000000001-71.1  469.5000000000001-69.6L 469.5000000000001-69.6L 471.9000000000001-68.2Q 473.7000000000001-67.1  474.7000000000001-66.4L 474.7000000000001-66.4Q 477.30000000000007-64.3  477.30000000000007-61.65Q 477.30000000000007-59  475.2000000000001-56.1L 475.2000000000001-56.1Q 471.30000000000007-50.7  468.2000000000001-50.7L 468.2000000000001-50.7Q 466.4000000000001-50.7  463.1000000000001-52.9L 463.1000000000001-52.9Q 458.9000000000001-56.3  451.9000000000001-56.3L 451.9000000000001-56.3Q 445.4000000000001-56.3  439.1000000000001-51.8L 439.1000000000001-51.8Q 436.1000000000001-49.6  434.1000000000001-45.6Q 432.1000000000001-41.6  432.1000000000001-36.55Q 432.1000000000001-31.5  434.1000000000001-27.5Q 436.1000000000001-23.5  439.2000000000001-21.2L 439.2000000000001-21.2Q 445.30000000000007-16.8  451.9000000000001-16.8L 451.9000000000001-16.8Q 455.0000000000001-16.8  457.7500000000001-17.6Q 460.5000000000001-18.4  461.7000000000001-19.2ZM 529.1000000000001-70.6Q 529.9000000000001-72.1  531.8000000000002-72.7Q 533.7000000000002-73.3  536.6000000000001-73.3Q 539.5000000000001-73.3  541.2000000000002-72.8Q 542.9000000000001-72.3  543.8000000000002-71.6Q 544.7000000000002-70.9  545.2000000000002-69.6L 545.2000000000002-69.6Q 545.7000000000002-67.9  545.7000000000002-64.4L 545.7000000000002-64.4L 545.7000000000002-8.9Q 545.7000000000002-6.6  545.5500000000002-5.45Q 545.4000000000001-4.3  544.6000000000001-2.8L 544.6000000000001-2.8Q 543.2000000000002-0.1  536.8000000000002-0.1L 536.8000000000002-0.1Q 529.8000000000002-0.1  528.6000000000001-3.8L 528.6000000000001-3.8Q 528.0000000000001-5.5  528.0000000000001-9L 528.0000000000001-9L 528.0000000000001-29.3L 501.5000000000001-29.3L 501.5000000000001-8.9Q 501.5000000000001-6.6  501.35000000000014-5.45Q 501.2000000000001-4.3  500.40000000000015-2.8L 500.40000000000015-2.8Q 499.0000000000001-0.1  492.60000000000014-0.1L 492.60000000000014-0.1Q 485.60000000000014-0.1  484.40000000000015-3.8L 484.40000000000015-3.8Q 483.8000000000001-5.5  483.8000000000001-9L 483.8000000000001-9L 483.8000000000001-64.5Q 483.8000000000001-66.8  483.9500000000001-67.95Q 484.10000000000014-69.1  484.90000000000015-70.6L 484.90000000000015-70.6Q 486.3000000000001-73.3  492.7000000000001-73.3L 492.7000000000001-73.3Q 499.7000000000001-73.3  501.0000000000001-69.6L 501.0000000000001-69.6Q 501.5000000000001-67.9  501.5000000000001-64.4L 501.5000000000001-64.4L 501.5000000000001-44L 528.0000000000001-44L 528.0000000000001-64.5Q 528.0000000000001-66.8  528.1500000000001-67.95Q 528.3000000000002-69.1  529.1000000000001-70.6ZM 571.4000000000001-27.8L 571.4000000000001-17.7L 602.2-17.7Q 604.5-17.7  605.6500000000001-17.55Q 606.8000000000001-17.4  608.3000000000001-16.6L 608.3000000000001-16.6Q 611-15.2  611-8.8L 611-8.8Q 611-1.8  607.3000000000001-0.6L 607.3000000000001-0.6Q 605.6 0  602.1 0L 602.1 0L 562.5 0Q 555.5 0  554.3000000000001-3.8L 554.3000000000001-3.8Q 553.7-5.4  553.7-8.9L 553.7-8.9L 553.7-64.5Q 553.7-69.6  555.6-71.45Q 557.5-73.3  562.8000000000001-73.3L 562.8000000000001-73.3L 602.2-73.3Q 604.5-73.3  605.6500000000001-73.15Q 606.8000000000001-73  608.3000000000001-72.2L 608.3000000000001-72.2Q 611-70.8  611-64.4L 611-64.4Q 611-57.4  607.3000000000001-56.2L 607.3000000000001-56.2Q 605.6-55.6  602.1-55.6L 602.1-55.6L 571.4000000000001-55.6L 571.4000000000001-45.5L 591.2-45.5Q 593.5-45.5  594.6500000000001-45.35Q 595.8000000000001-45.2  597.3000000000001-44.4L 597.3000000000001-44.4Q 600-43  600-36.6L 600-36.6Q 600-29.6  596.2-28.4L 596.2-28.4Q 594.5-27.8  591-27.8L 591-27.8L 571.4000000000001-27.8ZM 663.3-19.2L 663.3-19.2L 665.1-20.5Q 668.5-22.5  669.9-22.5L 669.9-22.5Q 673-22.5  676.6-16.9L 676.6-16.9Q 678.8-13.4  678.8-11.3Q 678.8-9.2  677.45-7.8Q 676.1-6.4  674.3-5.3Q 672.5-4.2  670.85-3.2Q 669.2-2.2  664.1-0.6Q 659 1  654.25 1Q 649.5 1  644.65-0.25Q 639.8-1.5  634.65-4.45Q 629.5-7.4  625.4-11.65Q 621.3-15.9  618.65-22.55Q 616-29.2  616-37Q 616-44.8  618.6-51.15Q 621.2-57.5  625.25-61.65Q 629.3-65.8  634.5-68.6L 634.5-68.6Q 644.3-74  654.2-74L 654.2-74Q 658.9-74  663.75-72.55Q 668.6-71.1  671.1-69.6L 671.1-69.6L 673.5-68.2Q 675.3-67.1  676.3-66.4L 676.3-66.4Q 678.9-64.3  678.9-61.65Q 678.9-59  676.8-56.1L 676.8-56.1Q 672.9-50.7  669.8-50.7L 669.8-50.7Q 668-50.7  664.7-52.9L 664.7-52.9Q 660.5-56.3  653.5-56.3L 653.5-56.3Q 647-56.3  640.7-51.8L 640.7-51.8Q 637.7-49.6  635.7-45.6Q 633.7-41.6  633.7-36.55Q 633.7-31.5  635.7-27.5Q 637.7-23.5  640.8-21.2L 640.8-21.2Q 646.9-16.8  653.5-16.8L 653.5-16.8Q 656.6-16.8  659.35-17.6Q 662.1-18.4  663.3-19.2ZM 720.8-40.6L 716.8-36.8Q 732.1-22.1  738.5-14.7L 738.5-14.7Q 741.8-11  741.8-8.45Q 741.8-5.9  737.8-2.45Q 733.8 1  731.25 1Q 728.6999999999999 1  725.1-3.2L 725.1-3.2L 703.1-28.3L 703.1-8.8Q 703.1-6.4  702.9499999999999-5.3Q 702.8-4.2  702-2.7L 702-2.7Q 700.6 0  694.1999999999999 0L 694.1999999999999 0Q 687.1999999999999 0  686-3.8L 686-3.8Q 685.4-5.4  685.4-8.9L 685.4-8.9L 685.4-64.5Q 685.4-66.8  685.55-67.95Q 685.6999999999999-69.1  686.5-70.6L 686.5-70.6Q 687.9-73.3  694.3-73.3L 694.3-73.3Q 701.3-73.3  702.6-69.6L 702.6-69.6Q 703.1-67.9  703.1-64.4L 703.1-64.4L 703.1-45.3Q 716.6999999999999-60.6  725.1-70.4L 725.1-70.4Q 728.6-74.5  731.1999999999999-74.5Q 733.8-74.5  737.8-71.05Q 741.8-67.6  741.8-65.05Q 741.8-62.5  738.8-59L 738.8-59Q 733-52.3  720.8-40.6L 720.8-40.6Z"></path></svg>